<?xml version="1.0" encoding="UTF-8" standalone="no"?>
<!-- Created with Inkscape (http://www.inkscape.org/) -->

<svg
   xmlns:dc="http://purl.org/dc/elements/1.1/"
   xmlns:cc="http://creativecommons.org/ns#"
   xmlns:rdf="http://www.w3.org/1999/02/22-rdf-syntax-ns#"
   xmlns:svg="http://www.w3.org/2000/svg"
   xmlns="http://www.w3.org/2000/svg"
   xmlns:sodipodi="http://sodipodi.sourceforge.net/DTD/sodipodi-0.dtd"
   xmlns:inkscape="http://www.inkscape.org/namespaces/inkscape"
   version="1.1"
   id="svg8706"
   xml:space="preserve"
   width="666.66669"
   height="350"
   viewBox="0 0 666.66669 350"
   sodipodi:docname="brand.svg"
   inkscape:version="0.92.4 (5da689c313, 2019-01-14)"><metadata
     id="metadata8712"><rdf:RDF><cc:Work
         rdf:about=""><dc:format>image/svg+xml</dc:format><dc:type
           rdf:resource="http://purl.org/dc/dcmitype/StillImage" /><dc:title></dc:title></cc:Work></rdf:RDF></metadata><defs
     id="defs8710"><radialGradient
       fx="0"
       fy="0"
       cx="0"
       cy="0"
       r="1"
       gradientUnits="userSpaceOnUse"
       gradientTransform="matrix(279.98795,0,0,-279.98795,250,250)"
       spreadMethod="pad"
       id="radialGradient8734"><stop
         style="stop-opacity:1;stop-color:#fbfbfb"
         offset="0"
         id="stop8728" /><stop
         style="stop-opacity:1;stop-color:#fbfbfb"
         offset="0.59100706"
         id="stop8730" /><stop
         style="stop-opacity:1;stop-color:#eee6f5"
         offset="1"
         id="stop8732" /></radialGradient><clipPath
       clipPathUnits="userSpaceOnUse"
       id="clipPath8744"><path
         d="M 0,500 H 500 V 0 H 0 Z"
         id="path8742"
         inkscape:connector-curvature="0" /></clipPath><clipPath
       clipPathUnits="userSpaceOnUse"
       id="clipPath8752"><path
         d="M 56.4104,172.217 H 246.119 V 156.852 H 56.4104 Z"
         id="path8750"
         inkscape:connector-curvature="0" /></clipPath><clipPath
       clipPathUnits="userSpaceOnUse"
       id="clipPath8756"><path
         d="m 246.119,164.534 c 0,4.243 -42.468,7.683 -94.854,7.683 -52.387,0 -94.854,-3.44 -94.854,-7.683 0,-4.243 42.467,-7.682 94.854,-7.682 52.386,0 94.854,3.439 94.854,7.682"
         id="path8754"
         inkscape:connector-curvature="0" /></clipPath><radialGradient
       fx="0"
       fy="0"
       cx="0"
       cy="0"
       r="1"
       gradientUnits="userSpaceOnUse"
       gradientTransform="matrix(89.851776,0,0,-6.1400304,151.26476,164.53444)"
       spreadMethod="pad"
       id="radialGradient8772"><stop
         style="stop-opacity:1;stop-color:#ffffff"
         offset="0"
         id="stop8762" /><stop
         style="stop-opacity:1;stop-color:#ffffff"
         offset="0.109788"
         id="stop8764" /><stop
         style="stop-opacity:1;stop-color:#ffffff"
         offset="0.25871075"
         id="stop8766" /><stop
         style="stop-opacity:0;stop-color:#ffffff"
         offset="0.999362"
         id="stop8768" /><stop
         style="stop-opacity:0;stop-color:#ffffff"
         offset="1"
         id="stop8770" /></radialGradient><mask
       maskUnits="userSpaceOnUse"
       x="0"
       y="0"
       width="1"
       height="1"
       id="mask8774"><g
         id="g8784"><g
           id="g8782"><g
             id="g8780"><g
               id="g8778"><path
                 d="M -32768,32767 H 32767 V -32768 H -32768 Z"
                 style="fill:url(#radialGradient8772);stroke:none"
                 id="path8776"
                 inkscape:connector-curvature="0" /></g></g></g></g></mask><radialGradient
       fx="0"
       fy="0"
       cx="0"
       cy="0"
       r="1"
       gradientUnits="userSpaceOnUse"
       gradientTransform="matrix(89.851776,0,0,-6.1400304,151.26476,164.53444)"
       spreadMethod="pad"
       id="radialGradient8796"><stop
         style="stop-opacity:1;stop-color:#666666"
         offset="0"
         id="stop8786" /><stop
         style="stop-opacity:1;stop-color:#666666"
         offset="0.109788"
         id="stop8788" /><stop
         style="stop-opacity:1;stop-color:#666666"
         offset="0.25871075"
         id="stop8790" /><stop
         style="stop-opacity:1;stop-color:#ffffff"
         offset="0.999362"
         id="stop8792" /><stop
         style="stop-opacity:1;stop-color:#ffffff"
         offset="1"
         id="stop8794" /></radialGradient><linearGradient
       x1="0"
       y1="0"
       x2="1"
       y2="0"
       gradientUnits="userSpaceOnUse"
       gradientTransform="matrix(166.47337,0,0,-166.47337,63.875923,275.84326)"
       spreadMethod="pad"
       id="linearGradient8832"><stop
         style="stop-opacity:1;stop-color:#fa71cd"
         offset="0"
         id="stop8828" /><stop
         style="stop-opacity:1;stop-color:#c471f5"
         offset="1"
         id="stop8830" /></linearGradient><clipPath
       clipPathUnits="userSpaceOnUse"
       id="clipPath8842"><path
         d="M 0,500 H 500 V 0 H 0 Z"
         id="path8840"
         inkscape:connector-curvature="0" /></clipPath><clipPath
       clipPathUnits="userSpaceOnUse"
       id="clipPath8850"><path
         d="M 63.8759,363.182 H 230.349 V 188.504 H 63.8759 Z"
         id="path8848"
         inkscape:connector-curvature="0" /></clipPath><clipPath
       clipPathUnits="userSpaceOnUse"
       id="clipPath8854"><path
         d="m 159.77,200.751 c -16.812,-4.903 -33.656,-0.049 -49.645,10.295 -28.086,18.172 -34.222,53.336 -18.567,82.279 16.501,30.508 53.234,39.048 82.934,21.189 6.173,-3.712 11.472,-8.321 15.836,-13.559 6.398,-7.68 16.475,-11.241 26.174,-8.826 l 0.826,0.205 c 10.879,2.709 16.255,14.93 10.97,24.817 -7.605,14.229 -19.256,26.545 -34.481,35.051 -40.469,22.609 -92.264,9.213 -116.74,-30.156 -25.803,-41.503 -12.573,-95.945 29.161,-121.04 17.587,-10.575 37.403,-14.23 56.284,-11.763 3.342,0.438 5.621,3.609 4.95,6.911 -0.713,3.504 -4.27,5.598 -7.702,4.597"
         id="path8852"
         inkscape:connector-curvature="0" /></clipPath><linearGradient
       x1="0"
       y1="0"
       x2="1"
       y2="0"
       gradientUnits="userSpaceOnUse"
       gradientTransform="matrix(1.6941204,-92.837791,-92.837791,-1.6941204,146.9413,301.56482)"
       spreadMethod="pad"
       id="linearGradient8870"><stop
         style="stop-opacity:1;stop-color:#ffffff"
         offset="0"
         id="stop8860" /><stop
         style="stop-opacity:1;stop-color:#ffffff"
         offset="0.109788"
         id="stop8862" /><stop
         style="stop-opacity:1;stop-color:#ffffff"
         offset="0.25871075"
         id="stop8864" /><stop
         style="stop-opacity:0;stop-color:#ffffff"
         offset="0.999362"
         id="stop8866" /><stop
         style="stop-opacity:0;stop-color:#ffffff"
         offset="1"
         id="stop8868" /></linearGradient><mask
       maskUnits="userSpaceOnUse"
       x="0"
       y="0"
       width="1"
       height="1"
       id="mask8872"><g
         id="g8882"><g
           id="g8880"><g
             id="g8878"><g
               id="g8876"><path
                 d="M -32768,32767 H 32767 V -32768 H -32768 Z"
                 style="fill:url(#linearGradient8870);stroke:none"
                 id="path8874"
                 inkscape:connector-curvature="0" /></g></g></g></g></mask><linearGradient
       x1="0"
       y1="0"
       x2="1"
       y2="0"
       gradientUnits="userSpaceOnUse"
       gradientTransform="matrix(1.6941204,-92.837791,-92.837791,-1.6941204,146.9413,301.56482)"
       spreadMethod="pad"
       id="linearGradient8894"><stop
         style="stop-opacity:1;stop-color:#666666"
         offset="0"
         id="stop8884" /><stop
         style="stop-opacity:1;stop-color:#666666"
         offset="0.109788"
         id="stop8886" /><stop
         style="stop-opacity:1;stop-color:#666666"
         offset="0.25871075"
         id="stop8888" /><stop
         style="stop-opacity:1;stop-color:#ffffff"
         offset="0.999362"
         id="stop8890" /><stop
         style="stop-opacity:1;stop-color:#ffffff"
         offset="1"
         id="stop8892" /></linearGradient><linearGradient
       x1="0"
       y1="0"
       x2="1"
       y2="0"
       gradientUnits="userSpaceOnUse"
       gradientTransform="matrix(-22.969807,-107.19243,-107.19243,22.969807,155.03751,333.1839)"
       spreadMethod="pad"
       id="linearGradient8930"><stop
         style="stop-opacity:1;stop-color:#764ba2"
         offset="0"
         id="stop8926" /><stop
         style="stop-opacity:1;stop-color:#667eea"
         offset="1"
         id="stop8928" /></linearGradient><clipPath
       clipPathUnits="userSpaceOnUse"
       id="clipPath8940"><path
         d="M 0,500 H 500 V 0 H 0 Z"
         id="path8938"
         inkscape:connector-curvature="0" /></clipPath><clipPath
       clipPathUnits="userSpaceOnUse"
       id="clipPath8948"><path
         d="M 63.8759,363.182 H 230.349 V 188.884 H 63.8759 Z"
         id="path8946"
         inkscape:connector-curvature="0" /></clipPath><clipPath
       clipPathUnits="userSpaceOnUse"
       id="clipPath8952"><path
         d="m 88.45,292.927 c 18.089,29.593 56.342,39.446 86.042,21.587 6.173,-3.712 11.472,-8.321 15.836,-13.559 6.398,-7.68 16.475,-11.241 26.174,-8.826 l 0.826,0.205 c 10.879,2.709 16.255,14.93 10.97,24.817 -7.604,14.229 -19.256,26.545 -34.481,35.051 -40.469,22.609 -92.264,9.213 -116.74,-30.156 -25.803,-41.503 -12.573,-95.945 29.161,-121.04 11.657,-7.01 24.292,-10.96 36.986,-12.121 -73.51,13.242 -68.793,81.108 -54.774,104.042"
         id="path8950"
         inkscape:connector-curvature="0" /></clipPath><linearGradient
       x1="0"
       y1="0"
       x2="1"
       y2="0"
       gradientUnits="userSpaceOnUse"
       gradientTransform="matrix(-87.077782,-38.964767,-38.964767,87.077782,191.9272,300.18304)"
       spreadMethod="pad"
       id="linearGradient8968"><stop
         style="stop-opacity:1;stop-color:#ffffff"
         offset="0"
         id="stop8958" /><stop
         style="stop-opacity:1;stop-color:#ffffff"
         offset="0.109788"
         id="stop8960" /><stop
         style="stop-opacity:1;stop-color:#ffffff"
         offset="0.25871075"
         id="stop8962" /><stop
         style="stop-opacity:0;stop-color:#ffffff"
         offset="0.999362"
         id="stop8964" /><stop
         style="stop-opacity:0;stop-color:#ffffff"
         offset="1"
         id="stop8966" /></linearGradient><mask
       maskUnits="userSpaceOnUse"
       x="0"
       y="0"
       width="1"
       height="1"
       id="mask8970"><g
         id="g8980"><g
           id="g8978"><g
             id="g8976"><g
               id="g8974"><path
                 d="M -32768,32767 H 32767 V -32768 H -32768 Z"
                 style="fill:url(#linearGradient8968);stroke:none"
                 id="path8972"
                 inkscape:connector-curvature="0" /></g></g></g></g></mask><linearGradient
       x1="0"
       y1="0"
       x2="1"
       y2="0"
       gradientUnits="userSpaceOnUse"
       gradientTransform="matrix(-87.077782,-38.964767,-38.964767,87.077782,191.9272,300.18304)"
       spreadMethod="pad"
       id="linearGradient8992"><stop
         style="stop-opacity:1;stop-color:#666666"
         offset="0"
         id="stop8982" /><stop
         style="stop-opacity:1;stop-color:#666666"
         offset="0.109788"
         id="stop8984" /><stop
         style="stop-opacity:1;stop-color:#666666"
         offset="0.25871075"
         id="stop8986" /><stop
         style="stop-opacity:1;stop-color:#ffffff"
         offset="0.999362"
         id="stop8988" /><stop
         style="stop-opacity:1;stop-color:#ffffff"
         offset="1"
         id="stop8990" /></linearGradient><linearGradient
       x1="0"
       y1="0"
       x2="1"
       y2="0"
       gradientUnits="userSpaceOnUse"
       gradientTransform="matrix(166.45981,0,0,-166.45981,63.882702,317.98828)"
       spreadMethod="pad"
       id="linearGradient9028"><stop
         style="stop-opacity:1;stop-color:#4facfe"
         offset="0"
         id="stop9024" /><stop
         style="stop-opacity:1;stop-color:#00f2fe"
         offset="1"
         id="stop9026" /></linearGradient><clipPath
       clipPathUnits="userSpaceOnUse"
       id="clipPath9038"><path
         d="M 129.374,338.679 C 92.977,337.498 63.246,312.159 63.941,276.034 v 0 c -0.019,0.52 -0.019,1.042 -0.029,1.563 v 0 c -0.03,-1.603 -0.03,-3.205 0.029,-4.803 v 0 c -0.695,36.126 29.036,61.465 65.433,62.646 v 0 c 36.389,1.18 53.594,-19.749 62.532,-33.454 v 0 c 5.459,-8.373 14.891,-12.272 24.59,-9.857 v 0 l 0.825,0.205 c 8.566,2.133 13.714,10.162 12.94,18.306 v 0 c -0.66,-6.942 -5.518,-13.218 -12.94,-15.067 v 0 l -0.825,-0.205 c -9.699,-2.414 -19.131,1.484 -24.59,9.857 v 0 c -8.694,13.332 -25.216,33.501 -59.606,33.502 v 0 c -0.962,0 -1.935,-0.016 -2.926,-0.048"
         id="path9036"
         inkscape:connector-curvature="0" /></clipPath><linearGradient
       x1="0"
       y1="0"
       x2="1"
       y2="0"
       gradientUnits="userSpaceOnUse"
       gradientTransform="matrix(166.44574,0,0,-166.44574,63.892399,305.76053)"
       spreadMethod="pad"
       id="linearGradient9052"><stop
         style="stop-opacity:1;stop-color:#ffffff"
         offset="0"
         id="stop9048" /><stop
         style="stop-opacity:0;stop-color:#ffffff"
         offset="1"
         id="stop9050" /></linearGradient><mask
       maskUnits="userSpaceOnUse"
       x="0"
       y="0"
       width="1"
       height="1"
       id="mask9054"><g
         id="g9064"><g
           id="g9062"><g
             id="g9060"><g
               id="g9058"><path
                 d="M -32768,32767 H 32767 V -32768 H -32768 Z"
                 style="fill:url(#linearGradient9052);stroke:none"
                 id="path9056"
                 inkscape:connector-curvature="0" /></g></g></g></g></mask><linearGradient
       x1="0"
       y1="0"
       x2="1"
       y2="0"
       gradientUnits="userSpaceOnUse"
       gradientTransform="matrix(166.44574,0,0,-166.44574,63.892399,305.76053)"
       spreadMethod="pad"
       id="linearGradient9074"><stop
         style="stop-opacity:1;stop-color:#00edff"
         offset="0"
         id="stop9070" /><stop
         style="stop-opacity:1;stop-color:#00f2fe"
         offset="1"
         id="stop9072" /></linearGradient><linearGradient
       x1="0"
       y1="0"
       x2="1"
       y2="0"
       gradientUnits="userSpaceOnUse"
       gradientTransform="matrix(-3.194381,-14.534434,-14.534434,3.194381,180.0116,206.29198)"
       spreadMethod="pad"
       id="linearGradient9094"><stop
         style="stop-opacity:1;stop-color:#fa71cd"
         offset="0"
         id="stop9090" /><stop
         style="stop-opacity:1;stop-color:#c471f5"
         offset="1"
         id="stop9092" /></linearGradient><clipPath
       clipPathUnits="userSpaceOnUse"
       id="clipPath9104"><path
         d="m 110.126,208.885 c 15.987,-10.345 32.833,-15.2 49.644,-10.296 v 0 c 3.431,1.002 6.989,-1.092 7.702,-4.596 v 0 c 0.005,-0.023 0.005,-0.046 0.01,-0.069 v 0 c 0.136,0.715 0.145,1.469 -0.01,2.231 v 0 c -0.713,3.503 -4.271,5.597 -7.702,4.596 v 0 c -16.811,-4.903 -33.657,-0.049 -49.644,10.295 v 0 C 92.345,222.55 83.374,240.863 83.147,260.097 v 0 c -0.444,-20.016 8.533,-39.278 26.979,-51.212"
         id="path9102"
         inkscape:connector-curvature="0" /></clipPath><linearGradient
       x1="0"
       y1="0"
       x2="1"
       y2="0"
       gradientUnits="userSpaceOnUse"
       gradientTransform="matrix(51.748058,-7.7976532,-7.7976532,-51.748058,111.54078,228.58003)"
       spreadMethod="pad"
       id="linearGradient9120"><stop
         style="stop-opacity:1;stop-color:#ffffff"
         offset="0"
         id="stop9114" /><stop
         style="stop-opacity:0;stop-color:#ffffff"
         offset="0.992146"
         id="stop9116" /><stop
         style="stop-opacity:0;stop-color:#ffffff"
         offset="1"
         id="stop9118" /></linearGradient><mask
       maskUnits="userSpaceOnUse"
       x="0"
       y="0"
       width="1"
       height="1"
       id="mask9122"><g
         id="g9132"><g
           id="g9130"><g
             id="g9128"><g
               id="g9126"><path
                 d="M -32768,32767 H 32767 V -32768 H -32768 Z"
                 style="fill:url(#linearGradient9120);stroke:none"
                 id="path9124"
                 inkscape:connector-curvature="0" /></g></g></g></g></mask><linearGradient
       x1="0"
       y1="0"
       x2="1"
       y2="0"
       gradientUnits="userSpaceOnUse"
       gradientTransform="matrix(51.748058,-7.7976532,-7.7976532,-51.748058,111.54078,228.58003)"
       spreadMethod="pad"
       id="linearGradient9144"><stop
         style="stop-opacity:1;stop-color:#ff99f5"
         offset="0"
         id="stop9138" /><stop
         style="stop-opacity:1;stop-color:#c471f5"
         offset="0.992146"
         id="stop9140" /><stop
         style="stop-opacity:1;stop-color:#c471f5"
         offset="1"
         id="stop9142" /></linearGradient><linearGradient
       x1="0"
       y1="0"
       x2="1"
       y2="0"
       gradientUnits="userSpaceOnUse"
       gradientTransform="matrix(-1.2777524,-9.9025803,-9.9025803,1.2777524,194.09705,212.81097)"
       spreadMethod="pad"
       id="linearGradient9164"><stop
         style="stop-opacity:1;stop-color:#fa71cd"
         offset="0"
         id="stop9160" /><stop
         style="stop-opacity:1;stop-color:#c471f5"
         offset="1"
         id="stop9162" /></linearGradient><linearGradient
       x1="0"
       y1="0"
       x2="1"
       y2="0"
       gradientUnits="userSpaceOnUse"
       gradientTransform="matrix(-1.2777524,-6.548481,-6.548481,1.2777524,204.38817,218.24457)"
       spreadMethod="pad"
       id="linearGradient9184"><stop
         style="stop-opacity:1;stop-color:#fa71cd"
         offset="0"
         id="stop9180" /><stop
         style="stop-opacity:1;stop-color:#c471f5"
         offset="1"
         id="stop9182" /></linearGradient><clipPath
       clipPathUnits="userSpaceOnUse"
       id="clipPath9194"><path
         d="M 85.911,292.927 C 72.227,270.538 67.42,205.339 135.588,189.93 v 0 c 2.538,-0.46 5.086,-0.812 7.635,-1.045 v 0 C 69.714,202.126 74.431,269.993 88.449,292.927 v 0 c 11.709,19.155 31.868,30.025 52.685,30.476 v 0 c -0.396,0.008 -0.793,0.012 -1.189,0.012 v 0 c -21.292,0 -42.071,-10.919 -54.034,-30.488"
         id="path9192"
         inkscape:connector-curvature="0" /></clipPath><linearGradient
       x1="0"
       y1="0"
       x2="1"
       y2="0"
       gradientUnits="userSpaceOnUse"
       gradientTransform="matrix(23.207653,99.836693,99.836693,-23.207653,106.80342,212.89062)"
       spreadMethod="pad"
       id="linearGradient9208"><stop
         style="stop-opacity:1;stop-color:#ffffff"
         offset="0"
         id="stop9204" /><stop
         style="stop-opacity:0;stop-color:#ffffff"
         offset="1"
         id="stop9206" /></linearGradient><mask
       maskUnits="userSpaceOnUse"
       x="0"
       y="0"
       width="1"
       height="1"
       id="mask9210"><g
         id="g9220"><g
           id="g9218"><g
             id="g9216"><g
               id="g9214"><path
                 d="M -32768,32767 H 32767 V -32768 H -32768 Z"
                 style="fill:url(#linearGradient9208);stroke:none"
                 id="path9212"
                 inkscape:connector-curvature="0" /></g></g></g></g></mask><linearGradient
       x1="0"
       y1="0"
       x2="1"
       y2="0"
       gradientUnits="userSpaceOnUse"
       gradientTransform="matrix(23.207653,99.836693,99.836693,-23.207653,106.80342,212.89062)"
       spreadMethod="pad"
       id="linearGradient9230"><stop
         style="stop-opacity:1;stop-color:#90a8fc"
         offset="0"
         id="stop9226" /><stop
         style="stop-opacity:1;stop-color:#667eea"
         offset="1"
         id="stop9228" /></linearGradient><clipPath
       clipPathUnits="userSpaceOnUse"
       id="clipPath9248"><path
         d="M 0,500 H 500 V 0 H 0 Z"
         id="path9246"
         inkscape:connector-curvature="0" /></clipPath><clipPath
       clipPathUnits="userSpaceOnUse"
       id="clipPath9260"><path
         d="M 0,500 H 500 V 0 H 0 Z"
         id="path9258"
         inkscape:connector-curvature="0" /></clipPath></defs><sodipodi:namedview
     pagecolor="#ffffff"
     bordercolor="#666666"
     borderopacity="1"
     objecttolerance="10"
     gridtolerance="10"
     guidetolerance="10"
     inkscape:pageopacity="0"
     inkscape:pageshadow="2"
     inkscape:window-width="1920"
     inkscape:window-height="1017"
     id="namedview8708"
     showgrid="false"
     inkscape:zoom="1.0012632"
     inkscape:cx="477.7623"
     inkscape:cy="303.47661"
     inkscape:window-x="-8"
     inkscape:window-y="-8"
     inkscape:window-maximized="1"
     inkscape:current-layer="g8714" /><g
     id="g8714"
     inkscape:groupmode="layer"
     inkscape:label="2492001"
     transform="matrix(1.3333333,0,0,-1.3333333,0,349.99998)"><g
       id="g8738"
       transform="translate(-8.2395922,-125.09199)"><g
         id="g8740"
         clip-path="url(#clipPath8744)"><g
           id="g8746"><g
             id="g8748" /><g
             id="g8814"><g
               clip-path="url(#clipPath8752)"
               id="g8812"
               style="opacity:0.39999402"><g
                 id="g8810"><g
                   clip-path="url(#clipPath8756)"
                   id="g8808"><g
                     id="g8806"><g
                       id="g8798" /><g
                       mask="url(#mask8774)"
                       id="g8804"><g
                         id="g8802"><path
                           d="m 246.119,164.534 c 0,4.243 -42.468,7.683 -94.854,7.683 -52.387,0 -94.854,-3.44 -94.854,-7.683 0,-4.243 42.467,-7.682 94.854,-7.682 52.386,0 94.854,3.439 94.854,7.682"
                           style="fill:url(#radialGradient8796);stroke:none"
                           id="path8800"
                           inkscape:connector-curvature="0" /></g></g></g></g></g></g></g></g></g></g><g
       id="g8816"
       transform="translate(-8.2395922,-125.09199)"><g
         id="g8818"><g
           id="g8824"><g
             id="g8826"><path
               d="M 77.077,322.046 C 51.274,280.543 64.504,226.101 106.239,201.006 v 0 c 17.587,-10.575 37.402,-14.23 56.283,-11.763 v 0 c 3.342,0.437 5.621,3.609 4.95,6.911 v 0 c -0.713,3.504 -4.271,5.598 -7.702,4.597 v 0 c -16.811,-4.903 -33.657,-0.049 -49.644,10.295 v 0 C 82.04,229.217 75.903,264.382 91.558,293.325 v 0 c 16.501,30.508 53.234,39.048 82.934,21.189 v 0 c 6.172,-3.713 11.472,-8.321 15.836,-13.558 v 0 c 6.399,-7.68 16.475,-11.242 26.174,-8.827 v 0 l 0.826,0.205 c 10.879,2.709 16.254,14.93 10.97,24.817 v 0 c -7.605,14.229 -19.256,26.545 -34.48,35.051 v 0 c -13.316,7.439 -27.861,10.98 -42.253,10.98 v 0 c -29.347,10e-4 -58.066,-14.721 -74.488,-41.136"
               style="fill:url(#linearGradient8832);stroke:none"
               id="path8834"
               inkscape:connector-curvature="0" /></g></g></g></g><g
       id="g8836"
       transform="translate(-8.2395922,-125.09199)"><g
         id="g8838"
         clip-path="url(#clipPath8842)"><g
           id="g8844"><g
             id="g8846" /><g
             id="g8912"><g
               clip-path="url(#clipPath8850)"
               id="g8910"
               style="opacity:0.60000598"><g
                 id="g8908"><g
                   clip-path="url(#clipPath8854)"
                   id="g8906"><g
                     id="g8904"><g
                       id="g8896" /><g
                       mask="url(#mask8872)"
                       id="g8902"><g
                         id="g8900"><path
                           d="m 159.77,200.751 c -16.812,-4.903 -33.656,-0.049 -49.645,10.295 -28.086,18.172 -34.222,53.336 -18.567,82.279 16.501,30.508 53.234,39.048 82.934,21.189 6.173,-3.712 11.472,-8.321 15.836,-13.559 6.398,-7.68 16.475,-11.241 26.174,-8.826 l 0.826,0.205 c 10.879,2.709 16.255,14.93 10.97,24.817 -7.605,14.229 -19.256,26.545 -34.481,35.051 -40.469,22.609 -92.264,9.213 -116.74,-30.156 -25.803,-41.503 -12.573,-95.945 29.161,-121.04 17.587,-10.575 37.403,-14.23 56.284,-11.763 3.342,0.438 5.621,3.609 4.95,6.911 -0.713,3.504 -4.27,5.598 -7.702,4.597"
                           style="fill:url(#linearGradient8894);stroke:none"
                           id="path8898"
                           inkscape:connector-curvature="0" /></g></g></g></g></g></g></g></g></g></g><g
       id="g8914"
       transform="translate(-8.2395922,-125.09199)"><g
         id="g8916"><g
           id="g8922"><g
             id="g8924"><path
               d="M 77.077,322.046 C 51.274,280.543 64.504,226.101 106.239,201.006 v 0 c 11.656,-7.01 24.292,-10.96 36.984,-12.121 v 0 C 69.714,202.126 74.431,269.993 88.449,292.927 v 0 c 18.09,29.593 56.343,39.446 86.043,21.587 v 0 c 6.172,-3.713 11.472,-8.321 15.836,-13.558 v 0 c 6.399,-7.68 16.475,-11.242 26.174,-8.827 v 0 l 0.826,0.205 c 10.879,2.709 16.254,14.93 10.97,24.817 v 0 c -7.605,14.229 -19.256,26.545 -34.48,35.051 v 0 c -13.316,7.439 -27.861,10.98 -42.253,10.98 v 0 c -29.347,10e-4 -58.066,-14.721 -74.488,-41.136"
               style="fill:url(#linearGradient8930);stroke:none"
               id="path8932"
               inkscape:connector-curvature="0" /></g></g></g></g><g
       id="g8934"
       transform="translate(-8.2395922,-125.09199)"><g
         id="g8936"
         clip-path="url(#clipPath8940)"><g
           id="g8942"><g
             id="g8944" /><g
             id="g9010"><g
               clip-path="url(#clipPath8948)"
               id="g9008"
               style="opacity:0.60000598"><g
                 id="g9006"><g
                   clip-path="url(#clipPath8952)"
                   id="g9004"><g
                     id="g9002"><g
                       id="g8994" /><g
                       mask="url(#mask8970)"
                       id="g9000"><g
                         id="g8998"><path
                           d="m 88.45,292.927 c 18.089,29.593 56.342,39.446 86.042,21.587 6.173,-3.712 11.472,-8.321 15.836,-13.559 6.398,-7.68 16.475,-11.241 26.174,-8.826 l 0.826,0.205 c 10.879,2.709 16.255,14.93 10.97,24.817 -7.604,14.229 -19.256,26.545 -34.481,35.051 -40.469,22.609 -92.264,9.213 -116.74,-30.156 -25.803,-41.503 -12.573,-95.945 29.161,-121.04 11.657,-7.01 24.292,-10.96 36.986,-12.121 -73.51,13.242 -68.793,81.108 -54.774,104.042"
                           style="fill:url(#linearGradient8992);stroke:none"
                           id="path8996"
                           inkscape:connector-curvature="0" /></g></g></g></g></g></g></g></g></g></g><g
       id="g9012"
       transform="translate(-8.2395922,-125.09199)"><g
         id="g9014"><g
           id="g9020"><g
             id="g9022"><path
               d="M 77.07,322.046 C 67.521,306.686 63.331,289.555 63.941,272.794 v 0 c -0.695,36.126 29.036,61.465 65.433,62.646 v 0 c 36.389,1.18 53.594,-19.749 62.532,-33.454 v 0 c 5.459,-8.373 14.891,-12.272 24.59,-9.857 v 0 l 0.826,0.205 c 10.877,2.709 16.254,14.93 10.969,24.817 v 0 c -7.604,14.229 -19.255,26.545 -34.48,35.051 v 0 c -13.316,7.439 -27.861,10.98 -42.253,10.98 v 0 C 122.211,363.183 93.492,348.461 77.07,322.046"
               style="fill:url(#linearGradient9028);stroke:none"
               id="path9030"
               inkscape:connector-curvature="0" /></g></g></g></g><g
       id="g9032"
       transform="translate(-8.2395922,-125.09199)"><g
         id="g9034"
         clip-path="url(#clipPath9038)"><g
           id="g9040"><g
             id="g9042" /><g
             id="g9066"
             mask="url(#mask9054)"><g
               id="g9068"><path
                 d="M 129.374,338.679 C 92.977,337.498 63.246,312.159 63.941,276.034 v 0 c -0.019,0.52 -0.019,1.042 -0.029,1.563 v 0 c -0.03,-1.603 -0.03,-3.205 0.029,-4.803 v 0 c -0.695,36.126 29.036,61.465 65.433,62.646 v 0 c 36.389,1.18 53.594,-19.749 62.532,-33.454 v 0 c 5.459,-8.373 14.891,-12.272 24.59,-9.857 v 0 l 0.825,0.205 c 8.566,2.133 13.714,10.162 12.94,18.306 v 0 c -0.66,-6.942 -5.518,-13.218 -12.94,-15.067 v 0 l -0.825,-0.205 c -9.699,-2.414 -19.131,1.484 -24.59,9.857 v 0 c -8.694,13.332 -25.216,33.501 -59.606,33.502 v 0 c -0.962,0 -1.935,-0.016 -2.926,-0.048"
                 style="fill:url(#linearGradient9074);stroke:none"
                 id="path9076"
                 inkscape:connector-curvature="0" /></g></g></g></g></g><g
       id="g9078"
       transform="translate(-8.2395922,-125.09199)"><g
         id="g9080"><g
           id="g9086"><g
             id="g9088"><path
               d="m 172.341,200.138 c 0,-3.489 2.829,-6.317 6.318,-6.317 v 0 c 3.489,0 6.318,2.828 6.318,6.317 v 0 c 0,3.49 -2.829,6.318 -6.318,6.318 v 0 c -3.489,0 -6.318,-2.828 -6.318,-6.318"
               style="fill:url(#linearGradient9094);stroke:none"
               id="path9096"
               inkscape:connector-curvature="0" /></g></g></g></g><g
       id="g9098"
       transform="translate(-8.2395922,-125.09199)"><g
         id="g9100"
         clip-path="url(#clipPath9104)"><g
           id="g9106"><g
             id="g9108" /><g
             id="g9134"
             mask="url(#mask9122)"><g
               id="g9136"><path
                 d="m 110.126,208.885 c 15.987,-10.345 32.833,-15.2 49.644,-10.296 v 0 c 3.431,1.002 6.989,-1.092 7.702,-4.596 v 0 c 0.005,-0.023 0.005,-0.046 0.01,-0.069 v 0 c 0.136,0.715 0.145,1.469 -0.01,2.231 v 0 c -0.713,3.503 -4.271,5.597 -7.702,4.596 v 0 c -16.811,-4.903 -33.657,-0.049 -49.644,10.295 v 0 C 92.345,222.55 83.374,240.863 83.147,260.097 v 0 c -0.444,-20.016 8.533,-39.278 26.979,-51.212"
                 style="fill:url(#linearGradient9144);stroke:none"
                 id="path9146"
                 inkscape:connector-curvature="0" /></g></g></g></g></g><g
       id="g9148"
       transform="translate(-8.2395922,-125.09199)"><g
         id="g9150"><g
           id="g9156"><g
             id="g9158"><path
               d="m 188.858,207.994 c 0,-2.551 2.067,-4.618 4.618,-4.618 v 0 c 2.55,0 4.618,2.067 4.618,4.618 v 0 c 0,2.55 -2.068,4.617 -4.618,4.617 v 0 c -2.551,0 -4.618,-2.067 -4.618,-4.617"
               style="fill:url(#linearGradient9164);stroke:none"
               id="path9166"
               inkscape:connector-curvature="0" /></g></g></g></g><g
       id="g9168"
       transform="translate(-8.2395922,-125.09199)"><g
         id="g9170"><g
           id="g9176"><g
             id="g9178"><path
               d="m 200.892,215.589 c 0,-1.645 1.333,-2.978 2.978,-2.978 v 0 c 1.645,0 2.978,1.333 2.978,2.978 v 0 c 0,1.644 -1.333,2.978 -2.978,2.978 v 0 c -1.645,0 -2.978,-1.334 -2.978,-2.978"
               style="fill:url(#linearGradient9184);stroke:none"
               id="path9186"
               inkscape:connector-curvature="0" /></g></g></g></g><g
       id="g9188"
       transform="translate(-8.2395922,-125.09199)"><g
         id="g9190"
         clip-path="url(#clipPath9194)"><g
           id="g9196"><g
             id="g9198" /><g
             id="g9222"
             mask="url(#mask9210)"><g
               id="g9224"><path
                 d="M 85.911,292.927 C 72.227,270.538 67.42,205.339 135.588,189.93 v 0 c 2.538,-0.46 5.086,-0.812 7.635,-1.045 v 0 C 69.714,202.126 74.431,269.993 88.449,292.927 v 0 c 11.709,19.155 31.868,30.025 52.685,30.476 v 0 c -0.396,0.008 -0.793,0.012 -1.189,0.012 v 0 c -21.292,0 -42.071,-10.919 -54.034,-30.488"
                 style="fill:url(#linearGradient9230);stroke:none"
                 id="path9232"
                 inkscape:connector-curvature="0" /></g></g></g></g></g><text
       transform="scale(1,-1)"
       style="font-variant:normal;font-weight:bold;font-stretch:normal;font-size:47.82509995px;font-family:'Antipasto Pro DemiBold';-inkscape-font-specification:AntipastoPro-DemiBold;writing-mode:lr-tb;fill:#54535b;fill-opacity:1;fill-rule:nonzero;stroke:none"
       id="text9236"
       x="108.49721"
       y="-119.21661"><tspan
         x="108.49721 137.814 170.95679 204.81696 228.77734 256.8985 285.68921 311.37128 322.13193 350.92264 379.04382 412.90399"
         y="-119.21661"
         sodipodi:role="line"
         id="tspan9234">COMPANY NAME</tspan></text>
<text
       transform="scale(1,-1)"
       style="font-variant:normal;font-weight:normal;font-stretch:normal;font-size:12px;font-family:Poppins;-inkscape-font-specification:Poppins-Regular;writing-mode:lr-tb;fill:#6c6c75;fill-opacity:1;fill-rule:nonzero;stroke:none"
       id="text9240"
       x="230.53381"
       y="-101.32791"><tspan
         x="230.53381 243.54181 258.97382 273.07382 286.36981 295.57382 308.6178 319.80182 335.2338 350.56982 364.65781 379.09381 388.29782 402.58981 414.74582 428.04181"
         y="-101.32791"
         sodipodi:role="line"
         id="tspan9238">YOUR SLOGAN HERE</tspan></text>
<g
       id="g9242"
       transform="translate(-8.2395922,-125.09199)"><g
         id="g9244"
         clip-path="url(#clipPath9248)"><g
           id="g9250"
           transform="translate(443.209,239.9375)"><path
             d="m 0,0 h -320.885 c -0.459,0 -0.831,-0.372 -0.831,-0.831 0,-0.46 0.372,-0.832 0.831,-0.832 L 0,-1.663 c 0.459,0 0.831,0.372 0.831,0.832 C 0.831,-0.372 0.459,0 0,0"
             style="fill:#d3d3dd;fill-opacity:1;fill-rule:nonzero;stroke:none"
             id="path9252"
             inkscape:connector-curvature="0" /></g></g></g></g></svg>